<svg width="24" height="24" viewBox="0 0 24 24" fill="none" xmlns="http://www.w3.org/2000/svg">
<path fill-rule="evenodd" clip-rule="evenodd" d="M3.42857 7.71427C3.42857 7.31978 3.74837 6.99998 4.14286 6.99998H19.8571C20.2516 6.99998 20.5714 7.31978 20.5714 7.71427V16.2857C20.5714 16.6802 20.2516 17 19.8571 17H4.14286C3.74837 17 3.42857 16.6802 3.42857 16.2857V7.71427ZM4.14286 5.57141C2.95939 5.57141 2 6.5308 2 7.71427V16.2857C2 17.4692 2.95939 18.4286 4.14286 18.4286H19.8571C21.0406 18.4286 22 17.4692 22 16.2857V7.71427C22 6.5308 21.0406 5.57141 19.8571 5.57141H4.14286ZM11.9999 13.4286C11.6054 13.4286 11.2856 13.7484 11.2856 14.1429C11.2856 14.5374 11.6054 14.8572 11.9999 14.8572H14.8571C15.2516 14.8572 15.5714 14.5374 15.5714 14.1429C15.5714 13.7484 15.2516 13.4286 14.8571 13.4286H11.9999ZM7.71411 10.5714V14.1428C7.71411 14.5373 8.03391 14.8571 8.4284 14.8571C8.82289 14.8571 9.14268 14.5373 9.14268 14.1428V10.5714H10.5713C10.9658 10.5714 11.2856 10.2516 11.2856 9.85711C11.2856 9.46262 10.9658 9.14282 10.5713 9.14282H8.4284H6.28557C5.89109 9.14282 5.57129 9.46262 5.57129 9.85711C5.57129 10.2516 5.89109 10.5714 6.28557 10.5714H7.71411Z" fill="#F3F3F3"/>
</svg>
